{
  "asset": {
    "generator": "glTF-Transform v4.5.0",
    "version": "2.0"
  },
  "accessors": [
    {
      "type": "SCALAR",
      "componentType": 5123,
      "count": 2076,
      "normalized": false,
      "byteOffset": 0,
      "bufferView": 0
    },
    {
      "type": "VEC3",
      "componentType": 5120,
      "count": 596,
      "normalized": true,
      "byteOffset": 0,
      "bufferView": 1
    },
    {
      "type": "SCALAR",
      "componentType": 5123,
      "count": 8262,
      "normalized": false,
      "byteOffset": 4152,
      "bufferView": 0
    },
    {
      "type": "VEC3",
      "componentType": 5120,
      "count": 2008,
      "normalized": true,
      "byteOffset": 0,
      "bufferView": 2
    },
    {
      "type": "SCALAR",
      "componentType": 5123,
      "count": 1128,
      "normalized": false,
      "byteOffset": 20676,
      "bufferView": 0
    },
    {
      "type": "VEC3",
      "componentType": 5120,
      "count": 384,
      "normalized": true,
      "byteOffset": 0,
      "bufferView": 3
    },
    {
      "type": "VEC3",
      "componentType": 5122,
      "count": 596,
      "max": [
        32767,
        1956,
        18162
      ],
      "min": [
        -32767,
        -1956,
        -18162
      ],
      "normalized": true,
      "byteOffset": 0,
      "bufferView": 4
    },
    {
      "type": "VEC2",
      "componentType": 5123,
      "count": 596,
      "normalized": true,
      "byteOffset": 0,
      "bufferView": 5
    },
    {
      "type": "VEC3",
      "componentType": 5122,
      "count": 2008,
      "max": [
        32767,
        12789,
        16221
      ],
      "min": [
        -32767,
        -12789,
        -16221
      ],
      "normalized": true,
      "byteOffset": 0,
      "bufferView": 6
    },
    {
      "type": "VEC2",
      "componentType": 5123,
      "count": 2008,
      "normalized": true,
      "byteOffset": 0,
      "bufferView": 7
    },
    {
      "type": "VEC3",
      "componentType": 5122,
      "count": 384,
      "max": [
        8713,
        32767,
        25707
      ],
      "min": [
        -8713,
        -32767,
        -25707
      ],
      "normalized": true,
      "byteOffset": 0,
      "bufferView": 8
    },
    {
      "type": "VEC2",
      "componentType": 5123,
      "count": 384,
      "normalized": true,
      "byteOffset": 0,
      "bufferView": 9
    }
  ],
  "bufferViews": [
    {
      "buffer": 1,
      "byteOffset": 0,
      "byteLength": 22932,
      "target": 34963,
      "extensions": {
        "EXT_meshopt_compression": {
          "buffer": 0,
          "byteOffset": 0,
          "byteLength": 4186,
          "mode": "TRIANGLES",
          "byteStride": 2,
          "count": 11466
        }
      }
    },
    {
      "buffer": 1,
      "byteOffset": 22932,
      "byteLength": 2384,
      "target": 34962,
      "byteStride": 4,
      "extensions": {
        "EXT_meshopt_compression": {
          "buffer": 0,
          "byteOffset": 4188,
          "byteLength": 1203,
          "mode": "ATTRIBUTES",
          "filter": "OCTAHEDRAL",
          "byteStride": 4,
          "count": 596
        }
      }
    },
    {
      "buffer": 1,
      "byteOffset": 25316,
      "byteLength": 8032,
      "target": 34962,
      "byteStride": 4,
      "extensions": {
        "EXT_meshopt_compression": {
          "buffer": 0,
          "byteOffset": 5392,
          "byteLength": 4127,
          "mode": "ATTRIBUTES",
          "filter": "OCTAHEDRAL",
          "byteStride": 4,
          "count": 2008
        }
      }
    },
    {
      "buffer": 1,
      "byteOffset": 33348,
      "byteLength": 1536,
      "target": 34962,
      "byteStride": 4,
      "extensions": {
        "EXT_meshopt_compression": {
          "buffer": 0,
          "byteOffset": 9520,
          "byteLength": 796,
          "mode": "ATTRIBUTES",
          "filter": "OCTAHEDRAL",
          "byteStride": 4,
          "count": 384
        }
      }
    },
    {
      "buffer": 1,
      "byteOffset": 34884,
      "byteLength": 4768,
      "target": 34962,
      "byteStride": 8,
      "extensions": {
        "EXT_meshopt_compression": {
          "buffer": 0,
          "byteOffset": 10316,
          "byteLength": 2820,
          "mode": "ATTRIBUTES",
          "byteStride": 8,
          "count": 596
        }
      }
    },
    {
      "buffer": 1,
      "byteOffset": 39652,
      "byteLength": 2384,
      "target": 34962,
      "byteStride": 4,
      "extensions": {
        "EXT_meshopt_compression": {
          "buffer": 0,
          "byteOffset": 13136,
          "byteLength": 1874,
          "mode": "ATTRIBUTES",
          "byteStride": 4,
          "count": 596
        }
      }
    },
    {
      "buffer": 1,
      "byteOffset": 42036,
      "byteLength": 16064,
      "target": 34962,
      "byteStride": 8,
      "extensions": {
        "EXT_meshopt_compression": {
          "buffer": 0,
          "byteOffset": 15012,
          "byteLength": 9698,
          "mode": "ATTRIBUTES",
          "byteStride": 8,
          "count": 2008
        }
      }
    },
    {
      "buffer": 1,
      "byteOffset": 58100,
      "byteLength": 8032,
      "target": 34962,
      "byteStride": 4,
      "extensions": {
        "EXT_meshopt_compression": {
          "buffer": 0,
          "byteOffset": 24712,
          "byteLength": 5892,
          "mode": "ATTRIBUTES",
          "byteStride": 4,
          "count": 2008
        }
      }
    },
    {
      "buffer": 1,
      "byteOffset": 66132,
      "byteLength": 3072,
      "target": 34962,
      "byteStride": 8,
      "extensions": {
        "EXT_meshopt_compression": {
          "buffer": 0,
          "byteOffset": 30604,
          "byteLength": 2140,
          "mode": "ATTRIBUTES",
          "byteStride": 8,
          "count": 384
        }
      }
    },
    {
      "buffer": 1,
      "byteOffset": 69204,
      "byteLength": 1536,
      "target": 34962,
      "byteStride": 4,
      "extensions": {
        "EXT_meshopt_compression": {
          "buffer": 0,
          "byteOffset": 32744,
          "byteLength": 964,
          "mode": "ATTRIBUTES",
          "byteStride": 4,
          "count": 384
        }
      }
    }
  ],
  "samplers": [
    {
      "magFilter": 9729,
      "minFilter": 9987,
      "wrapS": 10497,
      "wrapT": 10497
    }
  ],
  "textures": [
    {
      "sampler": 0,
      "extensions": {
        "KHR_texture_basisu": {
          "source": 1
        }
      }
    },
    {
      "sampler": 0,
      "extensions": {
        "KHR_texture_basisu": {
          "source": 0
        }
      }
    },
    {
      "sampler": 0,
      "extensions": {
        "KHR_texture_basisu": {
          "source": 2
        }
      }
    }
  ],
  "images": [
    {
      "name": "wooden_crate_01_nor_gl",
      "mimeType": "image/ktx2",
      "uri": "textures/wooden_crate_01_nor_gl_mid.ktx2"
    },
    {
      "name": "wooden_crate_01_diff",
      "mimeType": "image/ktx2",
      "uri": "textures/wooden_crate_01_diff_mid.ktx2"
    },
    {
      "name": "wooden_crate_01_metal-wooden_crate_01_rough",
      "mimeType": "image/ktx2",
      "uri": "textures/wooden_crate_01_arm_mid.ktx2"
    }
  ],
  "buffers": [
    {
      "uri": "wooden_crate_01_mid.bin",
      "byteLength": 33708
    },
    {
      "byteLength": 70740,
      "extensions": {
        "EXT_meshopt_compression": {
          "fallback": true
        }
      }
    }
  ],
  "materials": [
    {
      "name": "wooden_crate_01",
      "doubleSided": true,
      "pbrMetallicRoughness": {
        "baseColorTexture": {
          "index": 0
        },
        "metallicRoughnessTexture": {
          "index": 2
        }
      },
      "normalTexture": {
        "index": 1
      }
    }
  ],
  "meshes": [
    {
      "name": "Cube.005",
      "primitives": [
        {
          "attributes": {
            "NORMAL": 1,
            "POSITION": 6,
            "TEXCOORD_0": 7
          },
          "mode": 4,
          "material": 0,
          "indices": 0
        }
      ]
    },
    {
      "name": "Cube.020",
      "primitives": [
        {
          "attributes": {
            "NORMAL": 3,
            "POSITION": 8,
            "TEXCOORD_0": 9
          },
          "mode": 4,
          "material": 0,
          "indices": 2
        }
      ]
    },
    {
      "name": "Cube.001",
      "primitives": [
        {
          "attributes": {
            "NORMAL": 5,
            "POSITION": 10,
            "TEXCOORD_0": 11
          },
          "mode": 4,
          "material": 0,
          "indices": 4
        }
      ]
    }
  ],
  "nodes": [
    {
      "name": "wooden_crate_01_lid",
      "translation": [
        0,
        0.3205736428499222,
        0
      ],
      "scale": [
        0.3539096713066101,
        0.3539096713066101,
        0.3539096713066101
      ],
      "mesh": 0
    },
    {
      "name": "wooden_crate_01",
      "translation": [
        -0.00020149494345922392,
        0.1530208452604711,
        0.008658990263938904
      ],
      "scale": [
        0.41243496393028956,
        0.41243496393028956,
        0.41243496393028956
      ],
      "mesh": 1
    },
    {
      "name": "wooden_crate_01_latch",
      "translation": [
        -0.0032135164365172386,
        0.2874419316649437,
        0.16917550563812256
      ],
      "scale": [
        0.04834810644388199,
        0.04834810644388199,
        0.04834810644388199
      ],
      "mesh": 2
    }
  ],
  "scenes": [
    {
      "name": "Scene",
      "nodes": [
        0,
        1,
        2
      ]
    }
  ],
  "scene": 0,
  "extensionsUsed": [
    "EXT_meshopt_compression",
    "KHR_mesh_quantization",
    "KHR_texture_basisu"
  ],
  "extensionsRequired": [
    "EXT_meshopt_compression",
    "KHR_mesh_quantization",
    "KHR_texture_basisu"
  ]
}