{
  "asset": {
    "generator": "glTF-Transform v4.5.0",
    "version": "2.0"
  },
  "accessors": [
    {
      "type": "SCALAR",
      "componentType": 5123,
      "count": 3894,
      "normalized": false,
      "byteOffset": 0,
      "bufferView": 0
    },
    {
      "type": "VEC3",
      "componentType": 5120,
      "count": 891,
      "normalized": true,
      "byteOffset": 0,
      "bufferView": 1
    },
    {
      "type": "VEC3",
      "componentType": 5122,
      "count": 891,
      "max": [
        6784,
        32767,
        2948
      ],
      "min": [
        -6784,
        -32767,
        -2948
      ],
      "normalized": true,
      "byteOffset": 0,
      "bufferView": 2
    },
    {
      "type": "VEC2",
      "componentType": 5123,
      "count": 891,
      "normalized": true,
      "byteOffset": 0,
      "bufferView": 3
    }
  ],
  "bufferViews": [
    {
      "buffer": 1,
      "byteOffset": 0,
      "byteLength": 7788,
      "target": 34963,
      "extensions": {
        "EXT_meshopt_compression": {
          "buffer": 0,
          "byteOffset": 0,
          "byteLength": 1427,
          "mode": "TRIANGLES",
          "byteStride": 2,
          "count": 3894
        }
      }
    },
    {
      "buffer": 1,
      "byteOffset": 7788,
      "byteLength": 3564,
      "target": 34962,
      "byteStride": 4,
      "extensions": {
        "EXT_meshopt_compression": {
          "buffer": 0,
          "byteOffset": 1428,
          "byteLength": 1737,
          "mode": "ATTRIBUTES",
          "filter": "OCTAHEDRAL",
          "byteStride": 4,
          "count": 891
        }
      }
    },
    {
      "buffer": 1,
      "byteOffset": 11352,
      "byteLength": 7128,
      "target": 34962,
      "byteStride": 8,
      "extensions": {
        "EXT_meshopt_compression": {
          "buffer": 0,
          "byteOffset": 3168,
          "byteLength": 4102,
          "mode": "ATTRIBUTES",
          "byteStride": 8,
          "count": 891
        }
      }
    },
    {
      "buffer": 1,
      "byteOffset": 18480,
      "byteLength": 3564,
      "target": 34962,
      "byteStride": 4,
      "extensions": {
        "EXT_meshopt_compression": {
          "buffer": 0,
          "byteOffset": 7272,
          "byteLength": 3075,
          "mode": "ATTRIBUTES",
          "byteStride": 4,
          "count": 891
        }
      }
    }
  ],
  "samplers": [
    {
      "magFilter": 9729,
      "minFilter": 9987,
      "wrapS": 10497,
      "wrapT": 10497
    }
  ],
  "textures": [
    {
      "sampler": 0,
      "extensions": {
        "KHR_texture_basisu": {
          "source": 1
        }
      }
    },
    {
      "sampler": 0,
      "extensions": {
        "KHR_texture_basisu": {
          "source": 0
        }
      }
    },
    {
      "sampler": 0,
      "extensions": {
        "KHR_texture_basisu": {
          "source": 2
        }
      }
    }
  ],
  "images": [
    {
      "name": "sledgehammer_01_nor_gl",
      "mimeType": "image/ktx2",
      "uri": "textures/sledgehammer_01_nor_gl_mid.ktx2"
    },
    {
      "name": "sledgehammer_01_diff",
      "mimeType": "image/ktx2",
      "uri": "textures/sledgehammer_01_diff_mid.ktx2"
    },
    {
      "name": "sledgehammer_01_metal-sledgehammer_01_rough",
      "mimeType": "image/ktx2",
      "uri": "textures/sledgehammer_01_arm_mid.ktx2"
    }
  ],
  "buffers": [
    {
      "uri": "sledgehammer_01_mid.bin",
      "byteLength": 10348
    },
    {
      "byteLength": 22044,
      "extensions": {
        "EXT_meshopt_compression": {
          "fallback": true
        }
      }
    }
  ],
  "materials": [
    {
      "name": "sledgehammer_01",
      "doubleSided": true,
      "pbrMetallicRoughness": {
        "baseColorTexture": {
          "index": 0
        },
        "metallicRoughnessTexture": {
          "index": 2
        }
      },
      "normalTexture": {
        "index": 1
      }
    }
  ],
  "meshes": [
    {
      "name": "Cube.008",
      "primitives": [
        {
          "attributes": {
            "NORMAL": 1,
            "POSITION": 2,
            "TEXCOORD_0": 3
          },
          "mode": 4,
          "material": 0,
          "indices": 0
        }
      ]
    }
  ],
  "nodes": [
    {
      "name": "sledgehammer_01",
      "translation": [
        -0.00013670400860488208,
        -0.24371591937051562,
        1.601874828338623e-7
      ],
      "scale": [
        0.5027799380968645,
        0.5027799380968645,
        0.5027799380968645
      ],
      "mesh": 0
    }
  ],
  "scenes": [
    {
      "name": "blend_export",
      "nodes": [
        0
      ]
    }
  ],
  "scene": 0,
  "extensionsUsed": [
    "EXT_meshopt_compression",
    "KHR_mesh_quantization",
    "KHR_texture_basisu"
  ],
  "extensionsRequired": [
    "EXT_meshopt_compression",
    "KHR_mesh_quantization",
    "KHR_texture_basisu"
  ]
}