{
  "asset": {
    "generator": "glTF-Transform v4.5.0",
    "version": "2.0"
  },
  "accessors": [
    {
      "type": "SCALAR",
      "componentType": 5123,
      "count": 9195,
      "normalized": false,
      "byteOffset": 0,
      "bufferView": 0
    },
    {
      "type": "VEC3",
      "componentType": 5120,
      "count": 2730,
      "normalized": true,
      "byteOffset": 0,
      "bufferView": 1
    },
    {
      "type": "SCALAR",
      "componentType": 5123,
      "count": 1896,
      "normalized": false,
      "byteOffset": 18390,
      "bufferView": 0
    },
    {
      "type": "VEC3",
      "componentType": 5120,
      "count": 385,
      "normalized": true,
      "byteOffset": 0,
      "bufferView": 2
    },
    {
      "type": "VEC3",
      "componentType": 5122,
      "count": 2730,
      "max": [
        32575,
        32767,
        32095
      ],
      "min": [
        -32575,
        -32767,
        -32095
      ],
      "normalized": true,
      "byteOffset": 0,
      "bufferView": 3
    },
    {
      "type": "VEC2",
      "componentType": 5123,
      "count": 2730,
      "normalized": true,
      "byteOffset": 0,
      "bufferView": 4
    },
    {
      "type": "VEC3",
      "componentType": 5122,
      "count": 385,
      "max": [
        32767,
        21110,
        732
      ],
      "min": [
        -32767,
        -21110,
        -732
      ],
      "normalized": true,
      "byteOffset": 0,
      "bufferView": 5
    },
    {
      "type": "VEC2",
      "componentType": 5123,
      "count": 385,
      "normalized": true,
      "byteOffset": 0,
      "bufferView": 6
    }
  ],
  "bufferViews": [
    {
      "buffer": 1,
      "byteOffset": 0,
      "byteLength": 22182,
      "target": 34963,
      "extensions": {
        "EXT_meshopt_compression": {
          "buffer": 0,
          "byteOffset": 0,
          "byteLength": 3957,
          "mode": "TRIANGLES",
          "byteStride": 2,
          "count": 11091
        }
      }
    },
    {
      "buffer": 1,
      "byteOffset": 22184,
      "byteLength": 10920,
      "target": 34962,
      "byteStride": 4,
      "extensions": {
        "EXT_meshopt_compression": {
          "buffer": 0,
          "byteOffset": 3960,
          "byteLength": 5318,
          "mode": "ATTRIBUTES",
          "filter": "OCTAHEDRAL",
          "byteStride": 4,
          "count": 2730
        }
      }
    },
    {
      "buffer": 1,
      "byteOffset": 33104,
      "byteLength": 1540,
      "target": 34962,
      "byteStride": 4,
      "extensions": {
        "EXT_meshopt_compression": {
          "buffer": 0,
          "byteOffset": 9280,
          "byteLength": 826,
          "mode": "ATTRIBUTES",
          "filter": "OCTAHEDRAL",
          "byteStride": 4,
          "count": 385
        }
      }
    },
    {
      "buffer": 1,
      "byteOffset": 34644,
      "byteLength": 21840,
      "target": 34962,
      "byteStride": 8,
      "extensions": {
        "EXT_meshopt_compression": {
          "buffer": 0,
          "byteOffset": 10108,
          "byteLength": 14171,
          "mode": "ATTRIBUTES",
          "byteStride": 8,
          "count": 2730
        }
      }
    },
    {
      "buffer": 1,
      "byteOffset": 56484,
      "byteLength": 10920,
      "target": 34962,
      "byteStride": 4,
      "extensions": {
        "EXT_meshopt_compression": {
          "buffer": 0,
          "byteOffset": 24280,
          "byteLength": 8286,
          "mode": "ATTRIBUTES",
          "byteStride": 4,
          "count": 2730
        }
      }
    },
    {
      "buffer": 1,
      "byteOffset": 67404,
      "byteLength": 3080,
      "target": 34962,
      "byteStride": 8,
      "extensions": {
        "EXT_meshopt_compression": {
          "buffer": 0,
          "byteOffset": 32568,
          "byteLength": 1955,
          "mode": "ATTRIBUTES",
          "byteStride": 8,
          "count": 385
        }
      }
    },
    {
      "buffer": 1,
      "byteOffset": 70484,
      "byteLength": 1540,
      "target": 34962,
      "byteStride": 4,
      "extensions": {
        "EXT_meshopt_compression": {
          "buffer": 0,
          "byteOffset": 34524,
          "byteLength": 1113,
          "mode": "ATTRIBUTES",
          "byteStride": 4,
          "count": 385
        }
      }
    }
  ],
  "samplers": [
    {
      "magFilter": 9729,
      "minFilter": 9987,
      "wrapS": 10497,
      "wrapT": 10497
    }
  ],
  "textures": [
    {
      "sampler": 0,
      "extensions": {
        "KHR_texture_basisu": {
          "source": 1
        }
      }
    },
    {
      "sampler": 0,
      "extensions": {
        "KHR_texture_basisu": {
          "source": 0
        }
      }
    },
    {
      "sampler": 0,
      "extensions": {
        "KHR_texture_basisu": {
          "source": 2
        }
      }
    }
  ],
  "images": [
    {
      "name": "wooden_bucket_01_nor_gl",
      "mimeType": "image/ktx2",
      "uri": "textures/wooden_bucket_01_nor_gl_mid.ktx2"
    },
    {
      "name": "wooden_bucket_01_diff",
      "mimeType": "image/ktx2",
      "uri": "textures/wooden_bucket_01_diff_mid.ktx2"
    },
    {
      "name": "wooden_bucket_01_metal-wooden_bucket_01_rough",
      "mimeType": "image/ktx2",
      "uri": "textures/wooden_bucket_01_arm_mid.ktx2"
    }
  ],
  "buffers": [
    {
      "uri": "wooden_bucket_01_mid.bin",
      "byteLength": 35640
    },
    {
      "byteLength": 72024,
      "extensions": {
        "EXT_meshopt_compression": {
          "fallback": true
        }
      }
    }
  ],
  "materials": [
    {
      "name": "wooden_bucket_01",
      "doubleSided": true,
      "pbrMetallicRoughness": {
        "baseColorTexture": {
          "index": 0
        },
        "metallicRoughnessTexture": {
          "index": 2
        }
      },
      "normalTexture": {
        "index": 1
      }
    }
  ],
  "meshes": [
    {
      "name": "Cylinder",
      "primitives": [
        {
          "attributes": {
            "NORMAL": 1,
            "POSITION": 4,
            "TEXCOORD_0": 5
          },
          "mode": 4,
          "material": 0,
          "indices": 0
        }
      ]
    },
    {
      "name": "Plane",
      "primitives": [
        {
          "attributes": {
            "NORMAL": 3,
            "POSITION": 6,
            "TEXCOORD_0": 7
          },
          "mode": 4,
          "material": 0,
          "indices": 2
        }
      ]
    }
  ],
  "nodes": [
    {
      "name": "wooden_bucket_01",
      "translation": [
        0.00019727144535863772,
        0.17465383559465408,
        0.001331078305225608
      ],
      "scale": [
        0.17451708763837814,
        0.17451708763837814,
        0.17451708763837814
      ],
      "mesh": 0
    },
    {
      "name": "wooden_bucket_01_handle",
      "translation": [
        -0.0009611174464225769,
        0.4317830801010132,
        0.00044323442125460133
      ],
      "scale": [
        0.18348542600870132,
        0.18348542600870132,
        0.18348542600870132
      ],
      "mesh": 1
    }
  ],
  "scenes": [
    {
      "name": "Scene",
      "nodes": [
        0,
        1
      ]
    }
  ],
  "scene": 0,
  "extensionsUsed": [
    "EXT_meshopt_compression",
    "KHR_mesh_quantization",
    "KHR_texture_basisu"
  ],
  "extensionsRequired": [
    "EXT_meshopt_compression",
    "KHR_mesh_quantization",
    "KHR_texture_basisu"
  ]
}